<?xml version="1.0" encoding="utf-8"?>
<!-- Generator: Adobe Illustrator 26.5.0, SVG Export Plug-In . SVG Version: 6.00 Build 0)  -->
<svg version="1.1" id="Layer_1" xmlns="http://www.w3.org/2000/svg" xmlns:xlink="http://www.w3.org/1999/xlink" x="0px" y="0px"
	 viewBox="0 0 1173.24 1173.24" style="enable-background:new 0 0 1173.24 1173.24;" xml:space="preserve">
<style type="text/css">
	.st0{fill:#FFFFFF;}
	.st1{fill:#634A22;}
	.st2{fill:#231F20;}
</style>
<rect x="1154.09" class="st0" width="1173.24" height="1173.24"/>
<g>
	<g>
		<path class="st1" d="M872.84,320.13c-63.55,3-81.61,9.81-111.45,41.84c-0.7-37.55,2.82-75.69-19.25-109.42
			c1.31-0.74,2.4,0.88,3.51,1.61c21.74,14.28,34.68,33.77,35.12,60.41c0.07,3.92,0.69,4.47,4.58,3c21.98-8.35,44.45-12.8,67.88-6.59
			C859.96,312.76,866.3,315.46,872.84,320.13z"/>
		<g>
			<path class="st1" d="M361.21,856.86c1.17-0.58,1.88-1.81,1.88-3.04c0-0.65-0.2-1.29-0.58-1.88l-14.83-22.87h-4.47v21.31
				c0,1.42,0.45,2.79,1.17,3.95c0.78,1.1,1.88,2.01,3.17,2.53h-16.52c2.66-1.04,4.41-3.63,4.41-6.48v-44.05
				c0-1.43-0.45-2.79-1.23-3.89c-0.39-0.58-0.91-1.17-1.49-1.62c-0.52-0.39-1.04-0.71-1.68-0.97h30.51c0.26,0,0.58,0,0.84,0.06
				c3.69,0.19,7,1.75,9.46,4.21c2.66,2.66,4.28,6.28,4.28,10.3c0,5.96-3.56,11.08-8.68,13.34c-1.55,0.71-3.3,1.17-5.18,1.23
				c-0.26,0-0.45,0.06-0.71,0.06H357l14.51,22.41c1.49,2.4,3.63,4.21,6.22,5.38H361.21z M343.2,828.1c0,0,12.57-0.06,13.08-0.13
				c0.52-0.06,1.04-0.13,1.55-0.26c2.53-0.58,4.73-1.88,6.54-3.63c2.46-2.46,3.95-5.89,3.95-9.65c0-7.51-6.09-13.6-13.6-13.6H343.2
				V828.1z"/>
			<path class="st1" d="M396.13,799.85c-2.66,1.04-4.4,3.63-4.4,6.48v44.05c0,2.85,1.75,5.38,4.4,6.48h-16.52
				c2.66-1.1,4.34-3.63,4.34-6.48v-44.05c0-2.85-1.68-5.44-4.34-6.48H396.13z"/>
			<path class="st1" d="M450.41,850.38c0,2.85,1.75,5.38,4.34,6.48h-16.52c2.66-1.1,4.4-3.63,4.4-6.48V829h-31.16v21.38
				c0,2.85,1.75,5.38,4.4,6.48h-16.52c2.59-1.1,4.34-3.63,4.34-6.48v-44.05c0-2.85-1.75-5.44-4.34-6.48h16.52
				c-2.66,1.04-4.4,3.63-4.4,6.48v21.7h31.16v-21.7c0-2.85-1.75-5.44-4.4-6.48h16.52c-2.59,1.04-4.34,3.63-4.34,6.48V850.38z"/>
			<path class="st1" d="M534.3,854.33c1.04,1.1,2.27,1.94,3.69,2.53h-16.52c1.1-0.52,1.88-1.3,2.33-2.4
				c0.26-0.58,0.39-1.17,0.39-1.75c0-0.52-0.06-1.04-0.26-1.55l-4.15-12.31h-23.97l-5.18,12.63c-0.19,0.52-0.32,1.04-0.32,1.55
				c0,1.62,0.78,2.85,2.33,3.82h-8.75c2.79-1.23,4.73-3.24,5.96-6.02l18.72-45.92c2.4-1.49,4.08-2.66,4.92-3.56
				c0.78-0.84,1.17-1.29,1.17-1.49l17.23,50.65C532.42,852,533.19,853.23,534.3,854.33z M519.4,837.88l-10.56-31.09l-12.63,31.09
				H519.4z"/>
			<path class="st1" d="M583.85,847.79l-0.97,9.07h-41.65c2.66-1.04,4.4-3.63,4.4-6.48v-44.05c0-1.43-0.45-2.79-1.23-3.89
				c-0.78-1.17-1.81-2.07-3.17-2.59h16.52c-2.66,1.04-4.34,3.63-4.34,6.48v49.55h20.4c2.46,0,4.73-0.84,6.48-2.27
				C582.04,852.19,583.34,850.18,583.85,847.79z"/>
			<path class="st1" d="M599.92,806.4v41.58c0,3.63-0.39,6.87-0.91,9.65c-2.91,13.93-11.4,18.33-11.4,18.33
				c-0.13-0.13-0.26-0.32-0.52-0.58c3.82-3.82,4.34-11.66,4.79-17.75c0.13-2.01,0.2-3.89,0.2-5.51c0-1.68-0.07-3.11-0.07-4.15V806.4
				c0-1.42-0.45-2.79-1.23-3.95c-0.78-1.17-1.88-2.07-3.17-2.59h16.71C601.67,800.95,599.92,803.55,599.92,806.4z"/>
			<path class="st1" d="M657.96,854.33c1.04,1.1,2.27,1.94,3.69,2.53h-16.52c1.1-0.52,1.88-1.3,2.33-2.4
				c0.26-0.58,0.39-1.17,0.39-1.75c0-0.52-0.06-1.04-0.26-1.55l-4.15-12.31h-23.97l-5.18,12.63c-0.19,0.52-0.32,1.04-0.32,1.55
				c0,1.62,0.78,2.85,2.33,3.82h-8.74c2.79-1.23,4.73-3.24,5.96-6.02l18.72-45.92c2.4-1.49,4.08-2.66,4.92-3.56
				c0.78-0.84,1.17-1.29,1.17-1.49l17.23,50.65C656.08,852,656.86,853.23,657.96,854.33z M643.06,837.88l-10.56-31.09l-12.63,31.09
				H643.06z"/>
			<path class="st1" d="M712.63,799.85c-2.4,1.1-3.89,3.43-3.89,6.02v50.98h-1.55l-37.44-50.46v44.37c0,1.36,0.39,2.59,1.1,3.63
				c0.65,1.04,1.62,1.94,2.85,2.46h-8.81c2.4-1.1,3.89-3.43,3.89-6.09v-40.87c0-3.76-1.36-7.32-3.89-10.04h9.72l33.16,44.69v-38.67
				c0-1.29-0.39-2.53-1.1-3.56c-0.65-1.1-1.62-1.94-2.85-2.46H712.63z"/>
			<path class="st1" d="M767.3,828.23c0,15.61-11.53,28.63-25.72,28.63s-25.71-13.02-25.71-28.63s11.53-28.37,25.71-28.37
				S767.3,812.61,767.3,828.23z M759.66,828.23c0-15.09-8.1-27.4-18.07-27.4c-9.97,0-18.07,12.31-18.07,27.4
				c0,15.03,8.1,27.46,18.07,27.46C751.56,855.69,759.66,843.25,759.66,828.23z"/>
			<path class="st1" d="M821.65,799.85c-2.33,1.1-3.89,3.43-3.89,6.02v29.54c0,11.14-7,21.44-19.82,21.44
				c-18.2,0-23.06-14.32-23.06-24.68v-25.84c0-2.85-1.68-5.38-4.34-6.48H787c-2.66,1.1-4.34,3.63-4.34,6.48v27.98
				c0,12.57,6.22,21.05,16.19,21.18c9.39-0.07,17.94-7.32,17.94-20.08v-29.54c0-2.59-1.49-4.92-3.89-6.02H821.65z"/>
			<path class="st1" d="M871.79,842.28c0,5.96-3.56,11.08-8.68,13.34c-1.62,0.71-3.37,1.17-5.25,1.23H824.7
				c0.39-0.13,0.78-0.32,1.1-0.52c0.19-0.13,0.39-0.26,0.58-0.45c1.68-1.3,2.72-3.3,2.72-5.51v-44.05c0-1.43-0.45-2.72-1.23-3.89
				c-0.39-0.58-0.91-1.17-1.49-1.62l-1.68-0.97h28.18c3.95,0,7.58,1.62,10.17,4.21c2.66,2.66,4.21,6.22,4.21,10.23
				c0,6.15-3.82,11.4-9.26,13.47c3.76,0.19,7.06,1.75,9.52,4.21C870.11,834.64,871.79,838.26,871.79,842.28z M836.88,827.71h9.2
				c3.69,0,7.06-1.49,9.52-3.95c2.4-2.4,3.89-5.76,3.89-9.46c0-7.45-6.02-13.47-13.41-13.47h-9.2V827.71z M864.02,842.28
				c0-7.51-6.09-13.6-13.67-13.6h-13.47v27.21h13.47c1.1,0,2.14-0.13,3.11-0.32c2.53-0.58,4.79-1.88,6.54-3.63
				C862.47,849.47,864.02,846.04,864.02,842.28z"/>
		</g>
		<path class="st1" d="M360.7,628.38c-2.79,4.95-6.23,9.5-8.79,14.62c-9.14,18.24-4.75,32.35,13.57,41.48
			c16.46,8.2,34.25,9.28,52.23,8.46c42.7-1.97,79.81-18.94,114.37-42.78c14.02-9.67,27.07-20.6,40.45-31.1
			c5.72-4.49,11.59-8.8,18.29-11.75c12.35-5.44,23-3.03,31.43,7.49c7.63,9.52,11.46,20.73,13.27,32.68c0.32,2.12,0.76,4.27,0.71,6.4
			c-0.11,4.5,2,4.27,5.22,2.96c13.22-5.35,22.6-14.57,28.36-27.58c2.31-5.21,4.13-10.6,6.26-15.94c0.38,5.35,0.56,10.72,1.19,16.04
			c1.76,14.77,10.59,23.64,25.23,25.53c14.51,1.87,28.25-1.37,41.62-6.6c5.03-1.97,9.86-4.46,15.42-7
			c-2.57-1.38-4.68-1.18-6.68-1.25c-13.54-0.46-27.07-0.98-40.61-1.19c-4.13-0.06-6.17-0.41-4.47-5.42
			c2.16-6.39,2.53-13.54,5.45-19.48c2.99-6.07,10.88-6.64,16.27-10.24c13.3-8.87,25.35-18.91,35.05-31.77
			c6.05-8.04,7.68-16.55,5.22-26.11c-2.72-10.61-7.51-20.27-13.37-30.38c-4.59,14.89-4.51,29.51-5.93,43.93
			c-10.54-29.8-6.78-58.5,6.32-86.92c23.62,31.39,36.94,64.57,21.91,103.56c-6.58,17.06-18.8,29.25-34.8,37.8
			c-0.7,0.37-1.4,0.75-3.06,1.64c9.35,1.52,17.76,2.28,26.2,2.44c11.89,0.23,23.79,0.25,35.68,0.11c3.53-0.04,4.3,1.02,3.37,4.29
			c-1.81,6.35-3.34,12.78-5.04,19.16c-0.46,1.71-0.72,3.47-3.21,3.74c-12.09,1.3-21.88,8.04-31.91,14.01
			c-13.33,7.95-26.39,16.35-41.83,19.86c-10.13,2.3-20.25,3.05-30.38,0.25c-12.37-3.42-19.9-11.7-23.39-24.86
			c-5.89,11.45-13.71,20.31-24.53,25.21c-7.38,3.34-9.22,8.05-10.43,15.42c-4.01,24.3-17.95,42.31-38.69,54.89
			c-21.73,13.18-44.89,16.71-68.69,6.2c-20.39-9-31.54-25.33-34.19-47.45c-0.2-1.63-0.4-3.25-0.06-5.14
			c1.32,2.42,2.52,4.91,3.99,7.24c14.99,23.72,44.7,33.44,72.23,23.99c18.79-6.45,34.01-17.96,47.3-32.36
			c3.83-4.14,6.43-9.06,8.84-14.76c-7.93,1.19-15.23,2.46-22.68,1.81c-16.58-1.44-24.9-15.45-18.12-30.59
			c4.41-9.85,13.8-13.57,23.8-9.43c4.99,2.07,9.05,5.39,12.54,9.45c0.95,1.1,1.82,2.76,3.57,1.68c1.49-0.92,0.47-2.45,0.11-3.59
			c-2.17-6.8-4.8-13.36-9.89-18.64c-5.9-6.13-12.85-7.63-20.83-4.96c-5.23,1.75-9.87,4.56-14.23,7.88
			c-16.56,12.59-32.29,26.26-49.56,37.93c-25.96,17.54-53.61,31.31-84.56,37.39c-21.53,4.23-43.22,5.64-64.93,0.67
			c-7.14-1.63-13.93-4.12-20.36-7.58c-18.12-9.76-26.35-28.42-21.35-48.65C342.86,647.88,350.32,637.19,360.7,628.38z"/>
		<path class="st1" d="M500.9,473.92c-1.43-5.27-1.49-10.42-1.03-15.56c0.94-10.54,6.45-18.32,15.45-23.44
			c13.69-7.78,28.12-8.31,42.84-3.2c5.44,1.89,9.21,5.6,10.45,11.36c0.59,2.72,1.76,2.56,3.76,1.49c5.36-2.86,10.85-5.5,16.63-7.42
			c2.67-0.88,5.81-2.43,8.18-0.27c2.31,2.09,0.07,4.92-0.32,7.41c-0.2,1.24-0.52,2.49-0.98,3.65c-3.73,9.34,2.5,18.22,14.37,18.08
			c4.42-0.05,8.5-1.63,12.21-4.12c1.84-1.23,2.39-2.48,1.23-4.53c-1.59-2.82-3.31-5.5-5.67-7.73c-0.75-0.7-1.63-1.37-1.19-2.62
			c1.98-5.58,3.96-11.15,6.06-17.08c8.81,8.82,10.77,19.01,8.66,30.22c-1.32,7.01-4.06,13.45-9.68,18.17
			c-6.66,5.58-14.29,7.45-22.44,3.99c-7.75-3.3-10.6-10.01-10.84-18.05c-0.03-1.15-0.03-2.29-0.01-3.44
			c0.12-5.45,1.16-6.27-5.02-3.5c-21.48,9.64-41.33,21.83-58.42,38.2c-6.02,5.76-10.87,12.37-14.56,19.87
			c-1.16,2.37-1.27,4.48-0.29,6.87c5.1,12.47,14.92,19.85,26.99,24.43c17.02,6.46,34.26,5.84,51.2-0.28
			c26.7-9.64,45.79-28.14,59.51-52.55c6.88-12.25,11.65-25.38,15.63-38.82c0.27-0.9,0.14-2.35,1.32-2.52
			c1.17-0.17,1.55,1.2,2.09,2.01c5.42,8.12,7.33,17.06,6.36,27.39c-1.47-1.89-2.45-3.27-3.56-4.53c-2.26-2.56-2.99-2.45-3.91,0.77
			c-1.71,6.07-3.63,12.07-5.97,17.92c-9.46,23.63-23.39,43.98-44.94,58.12c-24.08,15.81-50.07,22.16-78.23,12.48
			c-17.1-5.88-28.73-17.44-32.48-35.6c-3.09-14.99,0.96-28.66,9.33-41.12c8.06-12.01,19.16-20.93,30.84-29.13
			c4.86-3.42,9.98-6.46,15.01-9.69c-6.51-4.14-23.44-4.85-34.74-1.15C512.89,453.9,503.95,460.95,500.9,473.92z"/>
		<path class="st1" d="M606.66,492.36c5.16,8.64,12.66,14.31,22.1,17.45c13.48,4.48,26.85,3.61,39.8-1.83
			c19.84-8.35,33.14-22.97,40.07-43.34c2.3-6.75,0.94-13.56-0.13-20.29c-1.31-8.26-4.1-16.1-7.78-23.6
			c-0.3-0.62-0.38-1.46-1.44-1.84c-2.71,8.49-4.85,17.08-6.09,25.9c-3.64-13.24,0.13-36.06,8.08-50.04
			c0.22,0.12,0.53,0.18,0.65,0.36c15.71,25.84,20.3,53.39,11.26,82.42c-6.66,21.41-20.45,37.2-41.68,45.28
			c-17.2,6.54-33.99,5.24-49.16-6.1C614.18,510.62,608.88,502.47,606.66,492.36z"/>
		<path class="st1" d="M432.99,655.58c3.66-2.17,7.43-4.18,10.97-6.53c10.3-6.83,13.52-16.6,11.31-28.42
			c-1.04-5.56-1.57-11.14-1.03-16.76c2.19-23.08,20.69-36.38,43.9-31.62c16.11,3.3,24.89,13.6,25.49,30.06
			c0.23,6.36,0.17,12.72-1.99,18.95c-1.59-0.77-1.39-2.11-1.69-3.11c-2.52-8.44-8.11-13.89-16.37-16.49
			c-11.85-3.73-23.67-3.63-34.38,3.09c-10.57,6.63-11.2,12.48-7.9,21.14c4.62,12.15,1.07,20.23-10.72,25.87
			C445.03,654.41,439.22,656.09,432.99,655.58z"/>
		<path class="st1" d="M667.75,589.99c-1.78-0.09-2.73-1.03-3.7-1.92c-4.99-4.57-9.92-9.21-14.99-13.69
			c-1.92-1.7-2.07-3.03-0.24-4.89c4.86-4.95,9.64-9.98,14.38-15.04c2.08-2.22,4.02-2.58,6.33-0.32c5.2,5.08,10.47,10.08,15.72,15.1
			c1.36,1.31,1.98,2.64,0.37,4.21c-5.33,5.18-10.64,10.38-16,15.52C669.05,589.5,668.2,589.75,667.75,589.99z"/>
		<path class="st1" d="M581.13,506.58c-0.48,0.61-0.85,1.18-1.32,1.66c-3.15,3.15-6.36,6.24-9.47,9.43
			c-1.7,1.75-3.16,1.77-4.95,0.09c-3.33-3.13-6.73-6.17-10.22-9.13c-1.55-1.32-1.4-2.37-0.14-3.69c3.32-3.46,6.62-6.95,9.92-10.42
			c1.18-1.25,2.4-1.68,3.82-0.31c3.78,3.65,7.59,7.27,11.36,10.92C580.52,505.51,580.77,506.04,581.13,506.58z"/>
		<path class="st1" d="M609.98,506.17c0.06,1.12-0.49,1.71-1.06,2.28c-3.17,3.14-6.37,6.27-9.52,9.43
			c-1.71,1.72-3.18,1.72-4.97-0.04c-3.35-3.29-6.84-6.44-10.35-9.55c-1.25-1.1-1.29-1.95-0.16-3.11c3.44-3.53,6.82-7.11,10.23-10.67
			c1.07-1.11,2.32-1.7,3.61-0.51c3.94,3.67,7.8,7.42,11.67,11.17C609.74,505.46,609.87,505.95,609.98,506.17z"/>
		<path class="st1" d="M446.4,756.81c-1.15,0.01-1.67-0.58-2.25-1.09c-3.29-2.89-6.52-5.87-9.9-8.65c-1.76-1.44-1.57-2.52-0.11-3.99
			c3.08-3.12,6.1-6.3,9.05-9.54c1.51-1.65,2.73-1.77,4.36-0.11c2.99,3.05,6.08,6.01,9.24,8.89c1.71,1.56,2.09,2.81,0.17,4.56
			c-2.99,2.73-5.79,5.67-8.7,8.5C447.65,755.97,446.9,756.43,446.4,756.81z"/>
		<path class="st1" d="M806,687.55c0.1,6.66-5.39,14.8-11.54,17.08c-1.76,0.65-3.59,1.29-4.72-0.91
			c-2.37-4.61-6.53-7.26-10.54-10.17c-4.82-3.49-5.17-6.24-2.1-11.37c3.04-5.08,7.91-8.32,12.08-12.26
			c0.63-0.59,1.28-0.88,2.21-0.64c4.55,1.2,14.1,12.48,14.57,17.28C805.98,686.9,805.98,687.23,806,687.55z"/>
		<path class="st1" d="M620.08,710.98c-22.45,18.71-71.53,16.35-83.05-4.77c12.89,9.25,25.92,15,40.95,14.49
			C592.6,720.22,606.52,716.43,620.08,710.98z"/>
		<path class="st1" d="M825.05,614c13.93-21.33,24.04-43.39,28.51-67.97c6.25-34.39-4.55-62.66-30.17-85.84
			c-26.35-23.83-56.92-41.04-88.46-56.76c-48.14-24-98.96-42.39-145.72-69.25c-23.27-13.37-45.97-27.86-59.42-52.31
			c-14.67-26.67-11.74-52.54,4.52-77.74c6.56-10.17,13.23-19.91,26.28-28.58c-4.8,9.47-8.88,15.86-11.42,22.81
			c-11.62,31.85-2.72,60.79,25.92,85.16c29.97,25.51,65.47,41.34,100.88,57.29c45.03,20.28,91.46,37.82,132.76,65.5
			c26.76,17.93,51.84,38.44,61.05,70.94c14.21,50.18-1.17,92.93-36.72,129.46C830.54,609.29,827.73,611.57,825.05,614z"/>
		<path class="st1" d="M674.45,225.33c18.32,0,36.65,0.01,54.97,0c8.11,0,11.07,2.82,6.24,10.6c-7.34,11.82-14.45,23.79-21.7,35.66
			c-3.33,5.45-8.17,8-14.65,7.96c-16.86-0.12-33.71-0.03-50.57,0.01c-5.88,0.01-10.62-1.85-13.87-7.16
			c-7.04-11.54-14.46-22.85-21.39-34.45c-6.1-10.21-4.51-12.79,7.09-12.78c17.96,0.02,35.91,0.01,53.87,0.01
			C674.45,225.22,674.45,225.28,674.45,225.33z"/>
		<path class="st1" d="M674.16,216.13c-9.51,0-19.04-0.28-28.53,0.09c-7.19,0.28-9.82-2.73-9.65-9.71
			c0.16-6.19,1.18-11.01,8.78-11.01c19.39,0.02,38.78,0,58.17,0.02c8.3,0.01,8.78,5.59,9.04,12c0.29,7.01-3,8.85-9.28,8.67
			C693.19,215.92,683.67,216.13,674.16,216.13z"/>
		<path class="st1" d="M673.4,305.78c-4.75,0-9.51-0.15-14.26,0.04c-6.57,0.27-10.17-1.84-10.26-9.28
			c-0.09-7.69,3.84-9.26,10.28-9.13c10.6,0.21,21.21,0.19,31.81,0.14c6.17-0.03,8.12,3.05,8.02,8.94c-0.1,5.73-1.92,9.21-8.04,9.28
			C685.1,305.83,679.25,305.78,673.4,305.78z"/>
	</g>
</g>
<rect class="st0" width="1173.24" height="1173.24"/>
<rect x="-1078.88" y="11.2" class="st1" width="1173.24" height="1173.24"/>
<g>
	<path class="st2" d="M941.63,369.08c-63.55,3-81.61,9.81-111.45,41.84c-0.7-37.55,2.82-75.69-19.25-109.42
		c1.31-0.74,2.4,0.88,3.51,1.61c21.74,14.28,34.68,33.77,35.12,60.41c0.07,3.92,0.69,4.47,4.58,3c21.98-8.35,44.45-12.8,67.88-6.59
		C928.75,361.71,935.09,364.41,941.63,369.08z"/>
	<g>
		<path class="st2" d="M430,905.81c1.17-0.58,1.88-1.81,1.88-3.04c0-0.65-0.19-1.29-0.58-1.88l-14.83-22.87h-4.47v21.31
			c0,1.42,0.45,2.79,1.17,3.95c0.78,1.1,1.88,2.01,3.17,2.53h-16.52c2.66-1.04,4.4-3.63,4.4-6.48v-44.05c0-1.43-0.45-2.79-1.23-3.89
			c-0.39-0.58-0.91-1.17-1.49-1.62c-0.52-0.39-1.04-0.71-1.68-0.97h30.51c0.26,0,0.58,0,0.84,0.06c3.69,0.19,7,1.75,9.46,4.21
			c2.66,2.66,4.28,6.28,4.28,10.3c0,5.96-3.56,11.08-8.68,13.34c-1.55,0.71-3.3,1.17-5.18,1.23c-0.26,0-0.45,0.06-0.71,0.06h-4.53
			l14.51,22.41c1.49,2.4,3.63,4.21,6.22,5.38H430z M411.99,877.05c0,0,12.57-0.06,13.08-0.13c0.52-0.06,1.04-0.13,1.55-0.26
			c2.53-0.58,4.73-1.88,6.54-3.63c2.46-2.46,3.95-5.89,3.95-9.65c0-7.51-6.09-13.6-13.6-13.6h-11.53V877.05z"/>
		<path class="st2" d="M464.92,848.8c-2.66,1.04-4.4,3.63-4.4,6.48v44.05c0,2.85,1.75,5.38,4.4,6.48H448.4
			c2.66-1.1,4.34-3.63,4.34-6.48v-44.05c0-2.85-1.68-5.44-4.34-6.48H464.92z"/>
		<path class="st2" d="M519.2,899.33c0,2.85,1.75,5.38,4.34,6.48h-16.52c2.66-1.1,4.4-3.63,4.4-6.48v-21.38h-31.16v21.38
			c0,2.85,1.75,5.38,4.4,6.48h-16.52c2.59-1.1,4.34-3.63,4.34-6.48v-44.05c0-2.85-1.75-5.44-4.34-6.48h16.52
			c-2.66,1.04-4.4,3.63-4.4,6.48v21.7h31.16v-21.7c0-2.85-1.75-5.44-4.4-6.48h16.52c-2.59,1.04-4.34,3.63-4.34,6.48V899.33z"/>
		<path class="st2" d="M603.09,903.28c1.04,1.1,2.27,1.94,3.69,2.53h-16.52c1.1-0.52,1.88-1.3,2.33-2.4
			c0.26-0.58,0.39-1.17,0.39-1.75c0-0.52-0.06-1.04-0.26-1.55l-4.15-12.31h-23.97l-5.18,12.63c-0.19,0.52-0.32,1.04-0.32,1.55
			c0,1.62,0.78,2.85,2.33,3.82h-8.74c2.79-1.23,4.73-3.24,5.96-6.02l18.72-45.92c2.4-1.49,4.08-2.66,4.92-3.56
			c0.78-0.84,1.17-1.29,1.17-1.49l17.23,50.65C601.21,900.95,601.99,902.18,603.09,903.28z M588.19,886.83l-10.56-31.09L565,886.83
			H588.19z"/>
		<path class="st2" d="M652.64,896.74l-0.97,9.07h-41.65c2.66-1.04,4.4-3.63,4.4-6.48v-44.05c0-1.43-0.45-2.79-1.23-3.89
			c-0.78-1.17-1.81-2.07-3.17-2.59h16.52c-2.66,1.04-4.34,3.63-4.34,6.48v49.55h20.4c2.46,0,4.73-0.84,6.48-2.27
			C650.83,901.14,652.13,899.13,652.64,896.74z"/>
		<path class="st2" d="M668.71,855.35v41.58c0,3.63-0.39,6.87-0.91,9.65c-2.91,13.93-11.4,18.33-11.4,18.33
			c-0.13-0.13-0.26-0.32-0.52-0.58c3.82-3.82,4.34-11.66,4.79-17.75c0.13-2.01,0.19-3.89,0.19-5.51c0-1.68-0.06-3.11-0.06-4.15
			v-41.58c0-1.42-0.45-2.79-1.23-3.95c-0.78-1.17-1.88-2.07-3.17-2.59h16.71C670.46,849.9,668.71,852.5,668.71,855.35z"/>
		<path class="st2" d="M726.75,903.28c1.04,1.1,2.27,1.94,3.69,2.53h-16.52c1.1-0.52,1.88-1.3,2.33-2.4
			c0.26-0.58,0.39-1.17,0.39-1.75c0-0.52-0.06-1.04-0.26-1.55l-4.15-12.31h-23.97l-5.18,12.63c-0.19,0.52-0.32,1.04-0.32,1.55
			c0,1.62,0.78,2.85,2.33,3.82h-8.74c2.79-1.23,4.73-3.24,5.96-6.02l18.72-45.92c2.4-1.49,4.08-2.66,4.92-3.56
			c0.78-0.84,1.17-1.29,1.17-1.49l17.23,50.65C724.87,900.95,725.65,902.18,726.75,903.28z M711.85,886.83l-10.56-31.09
			l-12.63,31.09H711.85z"/>
		<path class="st2" d="M781.42,848.8c-2.4,1.1-3.89,3.43-3.89,6.02v50.98h-1.55l-37.44-50.46v44.37c0,1.36,0.39,2.59,1.1,3.63
			c0.65,1.04,1.62,1.94,2.85,2.46h-8.81c2.4-1.1,3.89-3.43,3.89-6.09v-40.87c0-3.76-1.36-7.32-3.89-10.04h9.72l33.16,44.69v-38.67
			c0-1.29-0.39-2.53-1.1-3.56c-0.65-1.1-1.62-1.94-2.85-2.46H781.42z"/>
		<path class="st2" d="M836.1,877.18c0,15.61-11.53,28.63-25.72,28.63s-25.71-13.02-25.71-28.63s11.53-28.37,25.71-28.37
			S836.1,861.57,836.1,877.18z M828.45,877.18c0-15.09-8.1-27.4-18.07-27.4c-9.97,0-18.07,12.31-18.07,27.4
			c0,15.03,8.1,27.46,18.07,27.46C820.36,904.64,828.45,892.2,828.45,877.18z"/>
		<path class="st2" d="M890.45,848.8c-2.33,1.1-3.89,3.43-3.89,6.02v29.54c0,11.14-7,21.44-19.82,21.44
			c-18.2,0-23.06-14.32-23.06-24.68v-25.84c0-2.85-1.68-5.38-4.34-6.48h16.45c-2.66,1.1-4.34,3.63-4.34,6.48v27.98
			c0,12.57,6.22,21.05,16.19,21.18c9.39-0.07,17.94-7.32,17.94-20.08v-29.54c0-2.59-1.49-4.92-3.89-6.02H890.45z"/>
		<path class="st2" d="M940.59,891.23c0,5.96-3.56,11.08-8.68,13.34c-1.62,0.71-3.37,1.17-5.25,1.23h-33.16
			c0.39-0.13,0.78-0.32,1.1-0.52c0.19-0.13,0.39-0.26,0.58-0.45c1.68-1.3,2.72-3.3,2.72-5.51v-44.05c0-1.43-0.45-2.72-1.23-3.89
			c-0.39-0.58-0.91-1.17-1.49-1.62l-1.68-0.97h28.18c3.95,0,7.58,1.62,10.17,4.21c2.66,2.66,4.21,6.22,4.21,10.23
			c0,6.15-3.82,11.4-9.26,13.47c3.76,0.19,7.06,1.75,9.52,4.21C938.9,883.59,940.59,887.21,940.59,891.23z M905.67,876.66h9.2
			c3.69,0,7.06-1.49,9.52-3.95c2.4-2.4,3.89-5.76,3.89-9.46c0-7.45-6.02-13.47-13.41-13.47h-9.2V876.66z M932.81,891.23
			c0-7.51-6.09-13.6-13.67-13.6h-13.47v27.21h13.47c1.1,0,2.14-0.13,3.11-0.32c2.53-0.58,4.79-1.88,6.54-3.63
			C931.26,898.42,932.81,894.99,932.81,891.23z"/>
	</g>
	<path class="st2" d="M429.49,677.33c-2.79,4.95-6.23,9.5-8.79,14.62c-9.14,18.24-4.75,32.35,13.57,41.48
		c16.46,8.2,34.25,9.28,52.23,8.46c42.7-1.97,79.81-18.94,114.37-42.78c14.02-9.67,27.07-20.6,40.45-31.1
		c5.72-4.49,11.59-8.8,18.29-11.75c12.35-5.44,23-3.03,31.43,7.49c7.63,9.52,11.46,20.73,13.27,32.68c0.32,2.12,0.76,4.27,0.71,6.4
		c-0.11,4.5,2,4.27,5.22,2.96c13.22-5.35,22.6-14.57,28.36-27.58c2.31-5.21,4.13-10.6,6.26-15.94c0.38,5.35,0.56,10.72,1.19,16.04
		c1.76,14.77,10.59,23.64,25.23,25.53c14.51,1.87,28.25-1.37,41.62-6.6c5.03-1.97,9.86-4.46,15.42-7c-2.57-1.38-4.68-1.18-6.68-1.25
		c-13.54-0.46-27.07-0.98-40.61-1.19c-4.13-0.06-6.17-0.41-4.47-5.42c2.16-6.39,2.53-13.54,5.45-19.48
		c2.99-6.07,10.88-6.64,16.27-10.24c13.3-8.87,25.35-18.91,35.05-31.77c6.05-8.04,7.68-16.55,5.22-26.11
		c-2.72-10.61-7.51-20.27-13.37-30.38c-4.59,14.89-4.51,29.51-5.93,43.93c-10.54-29.8-6.78-58.5,6.32-86.92
		c23.62,31.39,36.94,64.57,21.91,103.55c-6.58,17.06-18.8,29.25-34.8,37.8c-0.7,0.37-1.4,0.75-3.06,1.64
		c9.35,1.52,17.76,2.28,26.2,2.44c11.89,0.23,23.79,0.25,35.68,0.11c3.53-0.04,4.3,1.02,3.37,4.29c-1.81,6.35-3.34,12.78-5.04,19.16
		c-0.46,1.71-0.72,3.47-3.21,3.74c-12.09,1.3-21.88,8.04-31.91,14.01c-13.33,7.95-26.39,16.35-41.83,19.86
		c-10.13,2.3-20.25,3.05-30.38,0.25c-12.37-3.42-19.9-11.7-23.39-24.86c-5.89,11.45-13.71,20.31-24.53,25.21
		c-7.38,3.34-9.22,8.05-10.43,15.42c-4.01,24.3-17.95,42.31-38.69,54.89c-21.73,13.18-44.89,16.71-68.69,6.2
		c-20.39-9-31.54-25.33-34.19-47.45c-0.2-1.63-0.4-3.25-0.06-5.14c1.32,2.42,2.52,4.91,3.99,7.24
		c14.99,23.72,44.7,33.44,72.23,23.99c18.79-6.45,34.01-17.96,47.3-32.36c3.83-4.14,6.43-9.06,8.84-14.76
		c-7.93,1.19-15.23,2.46-22.68,1.81c-16.58-1.44-24.9-15.45-18.12-30.59c4.41-9.85,13.8-13.57,23.8-9.43
		c4.99,2.07,9.05,5.39,12.54,9.45c0.95,1.1,1.82,2.76,3.57,1.68c1.49-0.92,0.47-2.45,0.11-3.59c-2.17-6.8-4.8-13.36-9.89-18.64
		c-5.9-6.13-12.85-7.63-20.83-4.96c-5.23,1.75-9.87,4.56-14.23,7.88c-16.56,12.59-32.29,26.26-49.56,37.93
		c-25.96,17.54-53.61,31.31-84.56,37.39c-21.53,4.23-43.22,5.64-64.93,0.67c-7.14-1.63-13.93-4.12-20.36-7.58
		c-18.12-9.76-26.35-28.42-21.35-48.65C411.65,696.83,419.11,686.14,429.49,677.33z"/>
	<path class="st2" d="M569.69,522.87c-1.43-5.27-1.49-10.42-1.03-15.56c0.94-10.54,6.45-18.32,15.45-23.44
		c13.69-7.78,28.12-8.31,42.84-3.2c5.44,1.89,9.21,5.6,10.45,11.36c0.59,2.72,1.76,2.56,3.76,1.49c5.36-2.86,10.85-5.5,16.63-7.42
		c2.67-0.88,5.81-2.43,8.18-0.27c2.31,2.09,0.07,4.92-0.32,7.41c-0.2,1.24-0.52,2.49-0.98,3.65c-3.73,9.34,2.5,18.22,14.37,18.08
		c4.42-0.05,8.5-1.63,12.21-4.12c1.84-1.23,2.39-2.48,1.23-4.53c-1.59-2.82-3.31-5.5-5.67-7.73c-0.75-0.7-1.63-1.37-1.19-2.62
		c1.98-5.58,3.96-11.15,6.06-17.08c8.81,8.82,10.77,19.01,8.66,30.22c-1.32,7.01-4.06,13.45-9.68,18.17
		c-6.66,5.58-14.29,7.45-22.44,3.99c-7.75-3.3-10.6-10.01-10.84-18.05c-0.03-1.15-0.03-2.29-0.01-3.44c0.12-5.45,1.16-6.27-5.02-3.5
		c-21.48,9.64-41.33,21.83-58.42,38.2c-6.02,5.76-10.87,12.37-14.56,19.87c-1.16,2.37-1.27,4.48-0.29,6.87
		c5.1,12.47,14.92,19.85,26.99,24.43c17.02,6.46,34.26,5.84,51.2-0.28c26.7-9.64,45.79-28.14,59.51-52.55
		c6.88-12.25,11.65-25.38,15.63-38.82c0.27-0.9,0.14-2.35,1.32-2.52c1.17-0.17,1.55,1.2,2.09,2.01c5.42,8.12,7.33,17.06,6.36,27.39
		c-1.47-1.89-2.45-3.27-3.56-4.53c-2.26-2.56-2.99-2.46-3.91,0.77c-1.71,6.07-3.63,12.07-5.97,17.92
		c-9.46,23.63-23.39,43.98-44.94,58.12c-24.08,15.81-50.07,22.16-78.23,12.48c-17.1-5.88-28.73-17.44-32.48-35.6
		c-3.09-14.99,0.96-28.66,9.33-41.12c8.06-12.01,19.16-20.93,30.84-29.13c4.86-3.42,9.98-6.46,15.01-9.69
		c-6.51-4.14-23.44-4.85-34.74-1.15C581.68,502.85,572.74,509.9,569.69,522.87z"/>
	<path class="st2" d="M675.45,541.31c5.16,8.64,12.66,14.31,22.1,17.45c13.48,4.48,26.85,3.61,39.8-1.83
		c19.84-8.35,33.14-22.97,40.07-43.34c2.3-6.75,0.94-13.56-0.13-20.29c-1.31-8.26-4.1-16.1-7.78-23.6c-0.3-0.62-0.38-1.46-1.44-1.84
		c-2.71,8.49-4.85,17.08-6.09,25.9c-3.64-13.24,0.13-36.06,8.08-50.04c0.22,0.12,0.53,0.18,0.65,0.36
		c15.71,25.84,20.3,53.39,11.26,82.42c-6.66,21.41-20.45,37.2-41.68,45.28c-17.2,6.54-33.99,5.24-49.16-6.1
		C682.97,559.57,677.67,551.42,675.45,541.31z"/>
	<path class="st2" d="M501.78,704.53c3.66-2.17,7.43-4.18,10.97-6.53c10.3-6.83,13.52-16.6,11.31-28.42
		c-1.04-5.56-1.57-11.14-1.03-16.76c2.19-23.08,20.69-36.38,43.9-31.62c16.11,3.3,24.89,13.6,25.49,30.06
		c0.23,6.36,0.18,12.72-1.99,18.95c-1.59-0.77-1.39-2.11-1.69-3.11c-2.52-8.44-8.11-13.89-16.37-16.49
		c-11.85-3.73-23.67-3.63-34.38,3.09c-10.57,6.63-11.2,12.48-7.9,21.14c4.62,12.15,1.07,20.23-10.72,25.87
		C513.82,703.36,508.01,705.04,501.78,704.53z"/>
	<path class="st2" d="M736.54,638.94c-1.78-0.09-2.73-1.03-3.7-1.92c-4.99-4.57-9.92-9.21-14.99-13.69
		c-1.92-1.7-2.07-3.03-0.24-4.89c4.86-4.95,9.63-9.98,14.38-15.04c2.08-2.22,4.02-2.58,6.33-0.32c5.2,5.08,10.47,10.08,15.72,15.1
		c1.36,1.31,1.98,2.64,0.37,4.21c-5.33,5.18-10.64,10.38-16,15.52C737.84,638.45,736.99,638.7,736.54,638.94z"/>
	<path class="st2" d="M649.92,555.53c-0.48,0.61-0.85,1.18-1.32,1.66c-3.15,3.15-6.36,6.24-9.47,9.43c-1.7,1.75-3.16,1.77-4.95,0.09
		c-3.33-3.13-6.73-6.17-10.22-9.13c-1.55-1.32-1.4-2.37-0.14-3.69c3.32-3.46,6.62-6.95,9.92-10.42c1.18-1.25,2.4-1.68,3.82-0.31
		c3.78,3.65,7.59,7.27,11.36,10.92C649.31,554.46,649.56,554.99,649.92,555.53z"/>
	<path class="st2" d="M678.77,555.12c0.06,1.12-0.49,1.71-1.06,2.28c-3.17,3.14-6.37,6.27-9.52,9.43c-1.71,1.72-3.18,1.72-4.97-0.04
		c-3.35-3.29-6.84-6.44-10.35-9.55c-1.25-1.1-1.29-1.95-0.16-3.11c3.44-3.53,6.82-7.11,10.23-10.67c1.07-1.11,2.32-1.7,3.61-0.51
		c3.94,3.67,7.8,7.42,11.67,11.17C678.53,554.41,678.66,554.9,678.77,555.12z"/>
	<path class="st2" d="M515.19,805.76c-1.15,0.01-1.67-0.58-2.25-1.09c-3.29-2.89-6.52-5.87-9.9-8.65c-1.76-1.44-1.57-2.52-0.11-3.99
		c3.08-3.12,6.1-6.3,9.05-9.54c1.51-1.65,2.73-1.77,4.36-0.11c2.99,3.05,6.08,6.01,9.24,8.89c1.71,1.56,2.09,2.81,0.17,4.56
		c-2.99,2.73-5.79,5.67-8.7,8.5C516.44,804.92,515.69,805.38,515.19,805.76z"/>
	<path class="st2" d="M874.79,736.5c0.1,6.66-5.39,14.8-11.54,17.08c-1.76,0.65-3.59,1.29-4.72-0.91
		c-2.37-4.61-6.53-7.26-10.54-10.17c-4.82-3.49-5.17-6.24-2.1-11.37c3.04-5.08,7.91-8.32,12.08-12.26c0.63-0.59,1.28-0.88,2.21-0.64
		c4.55,1.2,14.1,12.48,14.57,17.28C874.77,735.85,874.77,736.18,874.79,736.5z"/>
	<path class="st2" d="M688.87,759.93c-22.45,18.71-71.53,16.35-83.05-4.77c12.89,9.25,25.92,15,40.95,14.49
		C661.39,769.17,675.31,765.38,688.87,759.93z"/>
	<path class="st2" d="M893.85,662.95c13.93-21.33,24.04-43.39,28.51-67.97c6.25-34.39-4.55-62.66-30.17-85.84
		c-26.35-23.83-56.92-41.04-88.46-56.76c-48.14-24-98.96-42.39-145.72-69.25c-23.27-13.37-45.97-27.86-59.42-52.31
		c-14.67-26.67-11.74-52.54,4.52-77.74c6.56-10.17,13.23-19.91,26.28-28.58c-4.8,9.47-8.88,15.86-11.42,22.81
		c-11.62,31.85-2.72,60.79,25.92,85.16c29.97,25.51,65.47,41.34,100.88,57.29c45.03,20.28,91.46,37.82,132.76,65.5
		c26.76,17.93,51.84,38.44,61.05,70.94c14.21,50.18-1.17,92.93-36.72,129.46C899.33,658.24,896.52,660.52,893.85,662.95z"/>
	<path class="st2" d="M743.24,274.28c18.32,0,36.65,0.01,54.97,0c8.11,0,11.07,2.82,6.24,10.6c-7.34,11.82-14.45,23.79-21.7,35.66
		c-3.33,5.45-8.17,8-14.65,7.96c-16.86-0.12-33.71-0.03-50.57,0.01c-5.88,0.01-10.62-1.85-13.87-7.16
		c-7.04-11.54-14.46-22.85-21.39-34.45c-6.1-10.21-4.51-12.79,7.09-12.78c17.96,0.02,35.91,0.01,53.87,0.01
		C743.24,274.17,743.24,274.23,743.24,274.28z"/>
	<path class="st2" d="M742.95,265.08c-9.51,0-19.04-0.28-28.53,0.09c-7.19,0.28-9.82-2.73-9.65-9.71
		c0.16-6.19,1.18-11.01,8.78-11.01c19.39,0.02,38.78,0,58.17,0.02c8.3,0.01,8.78,5.59,9.04,12c0.29,7.01-3,8.85-9.28,8.67
		C761.98,264.87,752.46,265.08,742.95,265.08z"/>
	<path class="st2" d="M742.19,354.73c-4.75,0-9.51-0.15-14.26,0.04c-6.57,0.27-10.17-1.84-10.26-9.28
		c-0.09-7.69,3.84-9.26,10.28-9.13c10.6,0.21,21.21,0.19,31.81,0.14c6.17-0.03,8.12,3.05,8.02,8.94c-0.1,5.73-1.92,9.21-8.04,9.28
		C753.89,354.78,748.04,354.73,742.19,354.73z"/>
</g>
</svg>
